<mxfile host="app.diagrams.net" modified="2022-03-02T07:35:09.123Z" agent="5.0 (X11; Linux x86_64) AppleWebKit/537.36 (KHTML, like Gecko) Chrome/98.0.4758.80 Safari/537.36" etag="BghvctS_IzaXbk5fwJMZ" version="16.6.2" type="github">
  <diagram id="LMvz55lcDCbt3vumbWhR" name="Page-1">
    <mxGraphModel dx="1422" dy="800" grid="1" gridSize="10" guides="1" tooltips="1" connect="1" arrows="1" fold="1" page="1" pageScale="1" pageWidth="827" pageHeight="1169" math="0" shadow="0">
      <root>
        <mxCell id="0" />
        <mxCell id="1" parent="0" />
        <mxCell id="YmoFPeW2wvQSHdH2dssP-1" value="" style="rounded=0;whiteSpace=wrap;html=1;" vertex="1" parent="1">
          <mxGeometry x="30" y="10" width="1310" height="720" as="geometry" />
        </mxCell>
        <mxCell id="YmoFPeW2wvQSHdH2dssP-33" value="" style="rounded=0;whiteSpace=wrap;html=1;fontSize=48;" vertex="1" parent="1">
          <mxGeometry x="160" y="40" width="780" height="260" as="geometry" />
        </mxCell>
        <mxCell id="YmoFPeW2wvQSHdH2dssP-43" value="" style="rounded=1;whiteSpace=wrap;html=1;fontSize=48;strokeColor=#000000;" vertex="1" parent="1">
          <mxGeometry x="570" y="190" width="220" height="40" as="geometry" />
        </mxCell>
        <mxCell id="YmoFPeW2wvQSHdH2dssP-26" value="" style="rounded=0;whiteSpace=wrap;html=1;fontSize=48;" vertex="1" parent="1">
          <mxGeometry x="230" y="450" width="690" height="170" as="geometry" />
        </mxCell>
        <mxCell id="YmoFPeW2wvQSHdH2dssP-3" value="&lt;font style=&quot;font-size: 48px&quot;&gt;Flying pigeon&lt;/font&gt;" style="text;html=1;strokeColor=none;fillColor=none;align=center;verticalAlign=middle;whiteSpace=wrap;rounded=0;" vertex="1" parent="1">
          <mxGeometry x="400" y="300" width="370" height="160" as="geometry" />
        </mxCell>
        <mxCell id="YmoFPeW2wvQSHdH2dssP-5" value="" style="shape=table;startSize=0;container=1;collapsible=0;childLayout=tableLayout;fontSize=48;" vertex="1" parent="1">
          <mxGeometry x="1070" y="330" width="220" height="370" as="geometry" />
        </mxCell>
        <mxCell id="YmoFPeW2wvQSHdH2dssP-6" value="" style="shape=tableRow;horizontal=0;startSize=0;swimlaneHead=0;swimlaneBody=0;top=0;left=0;bottom=0;right=0;collapsible=0;dropTarget=0;fillColor=none;points=[[0,0.5],[1,0.5]];portConstraint=eastwest;fontSize=48;" vertex="1" parent="YmoFPeW2wvQSHdH2dssP-5">
          <mxGeometry width="220" height="93" as="geometry" />
        </mxCell>
        <mxCell id="YmoFPeW2wvQSHdH2dssP-7" value="ID" style="shape=partialRectangle;html=1;whiteSpace=wrap;connectable=0;overflow=hidden;fillColor=none;top=0;left=0;bottom=0;right=0;pointerEvents=1;fontSize=48;" vertex="1" parent="YmoFPeW2wvQSHdH2dssP-6">
          <mxGeometry width="60" height="93" as="geometry">
            <mxRectangle width="60" height="93" as="alternateBounds" />
          </mxGeometry>
        </mxCell>
        <mxCell id="YmoFPeW2wvQSHdH2dssP-8" value="Rank" style="shape=partialRectangle;html=1;whiteSpace=wrap;connectable=0;overflow=hidden;fillColor=none;top=0;left=0;bottom=0;right=0;pointerEvents=1;fontSize=48;" vertex="1" parent="YmoFPeW2wvQSHdH2dssP-6">
          <mxGeometry x="60" width="160" height="93" as="geometry">
            <mxRectangle width="160" height="93" as="alternateBounds" />
          </mxGeometry>
        </mxCell>
        <mxCell id="YmoFPeW2wvQSHdH2dssP-9" value="" style="shape=tableRow;horizontal=0;startSize=0;swimlaneHead=0;swimlaneBody=0;top=0;left=0;bottom=0;right=0;collapsible=0;dropTarget=0;fillColor=none;points=[[0,0.5],[1,0.5]];portConstraint=eastwest;fontSize=48;" vertex="1" parent="YmoFPeW2wvQSHdH2dssP-5">
          <mxGeometry y="93" width="220" height="92" as="geometry" />
        </mxCell>
        <mxCell id="YmoFPeW2wvQSHdH2dssP-10" value="ID" style="shape=partialRectangle;html=1;whiteSpace=wrap;connectable=0;overflow=hidden;fillColor=none;top=0;left=0;bottom=0;right=0;pointerEvents=1;fontSize=48;" vertex="1" parent="YmoFPeW2wvQSHdH2dssP-9">
          <mxGeometry width="60" height="92" as="geometry">
            <mxRectangle width="60" height="92" as="alternateBounds" />
          </mxGeometry>
        </mxCell>
        <mxCell id="YmoFPeW2wvQSHdH2dssP-11" value="Rank" style="shape=partialRectangle;html=1;whiteSpace=wrap;connectable=0;overflow=hidden;fillColor=none;top=0;left=0;bottom=0;right=0;pointerEvents=1;fontSize=48;" vertex="1" parent="YmoFPeW2wvQSHdH2dssP-9">
          <mxGeometry x="60" width="160" height="92" as="geometry">
            <mxRectangle width="160" height="92" as="alternateBounds" />
          </mxGeometry>
        </mxCell>
        <mxCell id="YmoFPeW2wvQSHdH2dssP-12" value="" style="shape=tableRow;horizontal=0;startSize=0;swimlaneHead=0;swimlaneBody=0;top=0;left=0;bottom=0;right=0;collapsible=0;dropTarget=0;fillColor=none;points=[[0,0.5],[1,0.5]];portConstraint=eastwest;fontSize=48;" vertex="1" parent="YmoFPeW2wvQSHdH2dssP-5">
          <mxGeometry y="185" width="220" height="93" as="geometry" />
        </mxCell>
        <mxCell id="YmoFPeW2wvQSHdH2dssP-13" value="ID" style="shape=partialRectangle;html=1;whiteSpace=wrap;connectable=0;overflow=hidden;fillColor=none;top=0;left=0;bottom=0;right=0;pointerEvents=1;fontSize=48;" vertex="1" parent="YmoFPeW2wvQSHdH2dssP-12">
          <mxGeometry width="60" height="93" as="geometry">
            <mxRectangle width="60" height="93" as="alternateBounds" />
          </mxGeometry>
        </mxCell>
        <mxCell id="YmoFPeW2wvQSHdH2dssP-14" value="Rank" style="shape=partialRectangle;html=1;whiteSpace=wrap;connectable=0;overflow=hidden;fillColor=none;top=0;left=0;bottom=0;right=0;pointerEvents=1;fontSize=48;" vertex="1" parent="YmoFPeW2wvQSHdH2dssP-12">
          <mxGeometry x="60" width="160" height="93" as="geometry">
            <mxRectangle width="160" height="93" as="alternateBounds" />
          </mxGeometry>
        </mxCell>
        <mxCell id="YmoFPeW2wvQSHdH2dssP-15" value="" style="shape=tableRow;horizontal=0;startSize=0;swimlaneHead=0;swimlaneBody=0;top=0;left=0;bottom=0;right=0;collapsible=0;dropTarget=0;fillColor=none;points=[[0,0.5],[1,0.5]];portConstraint=eastwest;fontSize=48;" vertex="1" parent="YmoFPeW2wvQSHdH2dssP-5">
          <mxGeometry y="278" width="220" height="92" as="geometry" />
        </mxCell>
        <mxCell id="YmoFPeW2wvQSHdH2dssP-16" value="ID" style="shape=partialRectangle;html=1;whiteSpace=wrap;connectable=0;overflow=hidden;fillColor=none;top=0;left=0;bottom=0;right=0;pointerEvents=1;fontSize=48;" vertex="1" parent="YmoFPeW2wvQSHdH2dssP-15">
          <mxGeometry width="60" height="92" as="geometry">
            <mxRectangle width="60" height="92" as="alternateBounds" />
          </mxGeometry>
        </mxCell>
        <mxCell id="YmoFPeW2wvQSHdH2dssP-17" value="Rank" style="shape=partialRectangle;html=1;whiteSpace=wrap;connectable=0;overflow=hidden;fillColor=none;top=0;left=0;bottom=0;right=0;pointerEvents=1;fontSize=48;" vertex="1" parent="YmoFPeW2wvQSHdH2dssP-15">
          <mxGeometry x="60" width="160" height="92" as="geometry">
            <mxRectangle width="160" height="92" as="alternateBounds" />
          </mxGeometry>
        </mxCell>
        <mxCell id="YmoFPeW2wvQSHdH2dssP-19" value="1" style="ellipse;whiteSpace=wrap;html=1;aspect=fixed;fontSize=48;" vertex="1" parent="1">
          <mxGeometry x="300" y="490" width="80" height="80" as="geometry" />
        </mxCell>
        <mxCell id="YmoFPeW2wvQSHdH2dssP-20" value="2" style="ellipse;whiteSpace=wrap;html=1;aspect=fixed;fontSize=48;" vertex="1" parent="1">
          <mxGeometry x="480" y="490" width="80" height="80" as="geometry" />
        </mxCell>
        <mxCell id="YmoFPeW2wvQSHdH2dssP-21" value="3" style="ellipse;whiteSpace=wrap;html=1;aspect=fixed;fontSize=48;" vertex="1" parent="1">
          <mxGeometry x="640" y="490" width="80" height="80" as="geometry" />
        </mxCell>
        <mxCell id="YmoFPeW2wvQSHdH2dssP-22" value="4" style="ellipse;whiteSpace=wrap;html=1;aspect=fixed;fontSize=48;" vertex="1" parent="1">
          <mxGeometry x="810" y="490" width="80" height="80" as="geometry" />
        </mxCell>
        <mxCell id="YmoFPeW2wvQSHdH2dssP-23" value="Info" style="text;html=1;strokeColor=none;fillColor=none;align=center;verticalAlign=middle;whiteSpace=wrap;rounded=0;fontSize=48;" vertex="1" parent="1">
          <mxGeometry x="1080" y="280" width="60" height="30" as="geometry" />
        </mxCell>
        <mxCell id="YmoFPeW2wvQSHdH2dssP-27" value="" style="endArrow=classic;html=1;rounded=0;fontSize=48;exitX=1;exitY=0.5;exitDx=0;exitDy=0;entryX=-0.042;entryY=0.419;entryDx=0;entryDy=0;entryPerimeter=0;" edge="1" parent="1" source="YmoFPeW2wvQSHdH2dssP-26" target="YmoFPeW2wvQSHdH2dssP-6">
          <mxGeometry width="50" height="50" relative="1" as="geometry">
            <mxPoint x="620" y="470" as="sourcePoint" />
            <mxPoint x="670" y="420" as="targetPoint" />
          </mxGeometry>
        </mxCell>
        <mxCell id="YmoFPeW2wvQSHdH2dssP-28" value="&lt;font style=&quot;font-size: 24px&quot;&gt;touch&lt;/font&gt;" style="text;html=1;strokeColor=none;fillColor=none;align=center;verticalAlign=middle;whiteSpace=wrap;rounded=0;fontSize=48;" vertex="1" parent="1">
          <mxGeometry x="940" y="420" width="60" height="30" as="geometry" />
        </mxCell>
        <mxCell id="YmoFPeW2wvQSHdH2dssP-29" value="&lt;font style=&quot;font-size: 24px&quot;&gt;blue&lt;/font&gt;" style="text;html=1;strokeColor=none;fillColor=none;align=center;verticalAlign=middle;whiteSpace=wrap;rounded=0;fontSize=48;" vertex="1" parent="1">
          <mxGeometry x="960" y="500" width="60" height="30" as="geometry" />
        </mxCell>
        <mxCell id="YmoFPeW2wvQSHdH2dssP-34" value="ä¸» pigeon:" style="text;html=1;strokeColor=none;fillColor=none;align=center;verticalAlign=middle;whiteSpace=wrap;rounded=0;fontSize=48;" vertex="1" parent="1">
          <mxGeometry x="150" y="50" width="300" height="30" as="geometry" />
        </mxCell>
        <mxCell id="YmoFPeW2wvQSHdH2dssP-37" value="&lt;span&gt;cur speed&lt;/span&gt;" style="rounded=1;whiteSpace=wrap;html=1;fontSize=48;" vertex="1" parent="1">
          <mxGeometry x="250" y="100" width="230" height="60" as="geometry" />
        </mxCell>
        <mxCell id="YmoFPeW2wvQSHdH2dssP-38" value="cur time" style="rounded=1;whiteSpace=wrap;html=1;fontSize=48;" vertex="1" parent="1">
          <mxGeometry x="707" y="100" width="183" height="60" as="geometry" />
        </mxCell>
        <mxCell id="YmoFPeW2wvQSHdH2dssP-41" value="" style="rounded=1;whiteSpace=wrap;html=1;fontSize=48;fillColor=#FF8000;strokeColor=#FF8000;" vertex="1" parent="1">
          <mxGeometry x="250" y="190" width="330" height="40" as="geometry" />
        </mxCell>
        <mxCell id="YmoFPeW2wvQSHdH2dssP-44" value="è·¯ç¨ç¾åæ¯" style="text;html=1;strokeColor=none;fillColor=none;align=center;verticalAlign=middle;whiteSpace=wrap;rounded=0;fontSize=48;" vertex="1" parent="1">
          <mxGeometry x="337" y="250" width="370" height="30" as="geometry" />
        </mxCell>
      </root>
    </mxGraphModel>
  </diagram>
</mxfile>
